<svg width="100" height="100" viewBox="0 0 100 100" fill="none" xmlns="http://www.w3.org/2000/svg">
<g clip-path="url(#clip0_1_2)">
<path d="M19.7087 88.6533C20.644 88.6533 21.3455 88.1659 22.4296 87.1696L32.3564 78.2464H51.8915C59.5863 78.2464 63.8802 73.88 63.8802 66.3345V44.7151C63.8802 37.1483 59.5863 32.7608 51.8915 32.7608H15.9888C8.2726 32.7608 4 37.1271 4 44.7151V66.3345C4 73.9225 8.2726 78.2464 15.9888 78.2464H17.5618V86.1947C17.5618 87.6784 18.3483 88.6533 19.7087 88.6533Z" fill="#743EE4" fill-opacity="0.85"/>
</g>
<g clip-path="url(#clip1_1_2)">
<path d="M78.5049 70.4533C79.8653 70.4533 80.6517 69.4784 80.6517 67.9947V60.0464H82.2248C89.9196 60.0464 94.2136 55.7225 94.2136 48.1345V26.5151C94.2136 18.9271 89.9196 14.5608 82.2248 14.5608H46.3221C38.6059 14.5608 34.3333 18.9483 34.3333 26.5151V48.1345C34.3333 55.68 38.6059 60.0464 46.3221 60.0464H65.8359L75.784 68.9696C76.868 69.9659 77.5482 70.4533 78.5049 70.4533Z" fill="#F2C14B" fill-opacity="0.85"/>
</g>
<defs>
<clipPath id="clip0_1_2">
<rect width="60.6667" height="59.4533" fill="white" transform="translate(4 29.2)"/>
</clipPath>
<clipPath id="clip1_1_2">
<rect width="60.6667" height="59.4533" fill="white" transform="translate(34.3333 11)"/>
</clipPath>
</defs>
</svg>
